# xmcd CD database file
#
# Track frame offsets:
#	150
#	9577
#	35690
#	56487
#	86485
#	117867
#	148630
#	168895
#	187997
#	206737
#	242015
#
# Disc length: 3540 seconds
#
# Revision: 0
# Processed by: cddbd v1.5.1PL0 Copyright (c) Steve Scherf et al.
# Submitted via: CDex 1.51
#
DISCID=8e0dd20b
DTITLE=横関敦 - Sea Of Joy
DYEAR=1900
DGENRE=Hard Rock
TTITLE0=Start Of The Human Fable
TTITLE1=In The Year 0001A.D
TTITLE2=Extravagance Of Human Being
TTITLE3=On The Foolish Hill
TTITLE4=Sea Of Joy
TTITLE5=The Adventures
TTITLE6=The Desire
TTITLE7=Lost Human Nature
TTITLE8=Warld War II
TTITLE9=Atomic Civilization
TTITLE10=September 1990
EXTD=
EXTT0=
EXTT1=
EXTT2=
EXTT3=
EXTT4=
EXTT5=
EXTT6=
EXTT7=
EXTT8=
EXTT9=
EXTT10=
PLAYORDER=
